# xmcd
#
# Track frame offsets:
#	150
#	22145
#	45107
#	66075
#	88995
#	111875
#	133602
#	155597
#	174977
#	198192
#	223025
#
# Disc length: 3423 seconds
#
# Revision: 1
# Processed by: cddbd v1.5.1PL0 Copyright (c) Steve Scherf et al.
# Submitted via: CDex 1.50Beta5
#
DISCID=950d5d0b
DTITLE=本多俊之 - SAX・HOLIC
DYEAR=1996
DGENRE=Fusion
TTITLE0=SWEET VACANCES
TTITLE1=LAST HONEYMOON
TTITLE2=LADY SMART
TTITLE3=STRAIGHT TALK
TTITLE4=OCEAN WIND
TTITLE5=CUT A RUG
TTITLE6=MERRY-ANDREW
TTITLE7=GOOD JOE
TTITLE8=KISS3
TTITLE9=SWEET VACANCES
TTITLE10=From somewhere inside me came this sudden
EXTD=
EXTT0=
EXTT1=
EXTT2=
EXTT3=
EXTT4=
EXTT5=
EXTT6=
EXTT7=
EXTT8=
EXTT9=
EXTT10=
PLAYORDER=
